{"accessors" : [{"bufferView" : 0, "byteOffset" : 0, "componentType" : 5123, "count" : 192, "type" : "SCALAR", "max" : [127], "min" : [0]}, {"bufferView" : 1, "byteOffset" : 0, "componentType" : 5126, "count" : 128, "type" : "VEC3", "max" : [1.01987898349762, 1.22886395454407, 1.01987898349762], "min" : [-1.01987898349762, 0.00845099985599518, -1.01987898349762]}, {"bufferView" : 1, "byteOffset" : 12, "componentType" : 5126, "count" : 128, "type" : "VEC3", "max" : [0.836707413196564, 0.850375354290009, 0.836707413196564], "min" : [-0.836707413196564, -0.992211282253265, -0.836707413196564]}, {"bufferView" : 1, "byteOffset" : 24, "componentType" : 5126, "count" : 128, "type" : "VEC2", "max" : [0.625, 1], "min" : [0.125, 0]}, {"bufferView" : 0, "byteOffset" : 384, "componentType" : 5123, "count" : 17952, "type" : "SCALAR", "max" : [10205], "min" : [0]}, {"bufferView" : 2, "byteOffset" : 0, "componentType" : 5126, "count" : 10206, "type" : "VEC3", "max" : [1.00637996196747, 1.21540594100952, 1.00637996196747], "min" : [-1.00637996196747, 0.0102289998903871, -1.00637996196747]}, {"bufferView" : 2, "byteOffset" : 12, "componentType" : 5126, "count" : 10206, "type" : "VEC3", "max" : [0.903307557106018, 0.910677254199982, 0.903307557106018], "min" : [-0.903307557106018, -0.989049017429352, -0.903307557106018]}, {"bufferView" : 2, "byteOffset" : 24, "componentType" : 5126, "count" : 10206, "type" : "VEC2", "max" : [0.625, 1], "min" : [0.125, 0]}, {"bufferView" : 0, "byteOffset" : 36288, "componentType" : 5123, "count" : 18, "type" : "SCALAR", "max" : [15], "min" : [0]}, {"bufferView" : 3, "byteOffset" : 0, "componentType" : 5126, "count" : 16, "type" : "VEC3", "max" : [1, 1.20952200889587, 1], "min" : [-1, 0.0133159998804331, -1]}, {"bufferView" : 3, "byteOffset" : 12, "componentType" : 5126, "count" : 16, "type" : "VEC3", "max" : [0.767207205295563, 0.641405999660492, 0.767207205295563], "min" : [-0.767207205295563, -1.00000441074371, -0.767207205295563]}, {"bufferView" : 3, "byteOffset" : 24, "componentType" : 5126, "count" : 16, "type" : "VEC2", "max" : [0.625, 1], "min" : [0.125, 0]}], "asset" : {"generator" : "Aspose.3D 20.2.1", "version" : "2.0"}, "buffers" : [{"uri" : "buffer.bin", "byteLength" : 367540}], "bufferViews" : [{"buffer" : 0, "byteOffset" : 0, "byteLength" : 36324, "target" : 34963}, {"buffer" : 0, "byteOffset" : 36328, "byteLength" : 4096, "byteStride" : 32, "target" : 34962}, {"buffer" : 0, "byteOffset" : 40428, "byteLength" : 326592, "byteStride" : 32, "target" : 34962}, {"buffer" : 0, "byteOffset" : 367024, "byteLength" : 512, "byteStride" : 32, "target" : 34962}], "materials" : [{"pbrMetallicRoughness" : {"baseColorFactor" : [0.5, 0.5, 0.5, 1], "metallicFactor" : 0, "roughnessFactor" : 1}, "emissiveFactor" : [0, 0, 0], "alphaMode" : "OPAQUE", "doubleSided" : false}, {"pbrMetallicRoughness" : {"baseColorFactor" : [0.5, 0.5, 0.5, 1], "metallicFactor" : 0, "roughnessFactor" : 1}, "emissiveFactor" : [0, 0, 0], "alphaMode" : "OPAQUE", "doubleSided" : false}, {"pbrMetallicRoughness" : {"baseColorFactor" : [0.5, 0.5, 0.5, 1], "metallicFactor" : 0, "roughnessFactor" : 1}, "emissiveFactor" : [0, 0, 0], "alphaMode" : "OPAQUE", "doubleSided" : false}], "meshes" : [{"primitives" : [{"attributes" : {"POSITION" : 1, "NORMAL" : 2, "TEXCOORD_0" : 3}, "indices" : 0, "material" : 0, "mode" : 4}]}, {"primitives" : [{"attributes" : {"POSITION" : 5, "NORMAL" : 6, "TEXCOORD_0" : 7}, "indices" : 4, "material" : 1, "mode" : 4}]}, {"primitives" : [{"attributes" : {"POSITION" : 9, "NORMAL" : 10, "TEXCOORD_0" : 11}, "indices" : 8, "material" : 2, "mode" : 4}]}], "nodes" : [{"mesh" : 0, "name" : "Cube.001_Cube.002"}, {"mesh" : 1, "name" : "Cube.002_Cube.003"}, {"mesh" : 2, "name" : "Cube_Cube.004"}], "scene" : 0, "scenes" : [{"nodes" : [0, 1, 2]}]}